<svg id="Layer_1" data-name="Layer 1" xmlns="http://www.w3.org/2000/svg" viewBox="0 0 207.74 37" width="207.74" height="37"><defs><style>.cls-1{fill:#ff6e40}</style></defs><title>vr-lockup</title><path class="cls-1" d="M50.33 37H40a7.42 7.42 0 0 1-6.54-3.92l-2.91-5.42a1.89 1.89 0 0 0-1.69-1 1.89 1.89 0 0 0-1.69 1l-2.91 5.42A7.42 7.42 0 0 1 17.73 37H7.43A7.42 7.42 0 0 1 0 29.57V7.42A7.42 7.42 0 0 1 7.43 0h42.9a7.42 7.42 0 0 1 7.43 7.42v22.15A7.42 7.42 0 0 1 50.33 37zM28.89 24.25a4.3 4.3 0 0 1 3.8 2.27l2.91 5.43a5 5 0 0 0 4.4 2.66h10.3a5 5 0 0 0 5-5V7.42a5 5 0 0 0-5-5H7.43a5 5 0 0 0-5 5v22.15a5 5 0 0 0 5 5h10.3a5 5 0 0 0 4.44-2.66l2.91-5.42a4.3 4.3 0 0 1 3.8-2.27z"/><path class="cls-1" d="M15.73 25.92a7.42 7.42 0 1 1 7.42-7.42 7.43 7.43 0 0 1-7.42 7.42zm0-12.46a5 5 0 1 0 5 5 5 5 0 0 0-5-5zM42 25.92a7.42 7.42 0 1 1 7.43-7.42A7.43 7.43 0 0 1 42 25.92zm0-12.46a5 5 0 1 0 5 5 5 5 0 0 0-5-5z"/><path d="M180.94 29.15l-7.4-21h3l5.76 17.07h.12l6-17.07h3l-7.64 21h-2.82zM193.18 29.15v-21h7.17A6.65 6.65 0 0 1 205 9.89a5.8 5.8 0 0 1 2 4.48 5.83 5.83 0 0 1-1.44 3.89 6.24 6.24 0 0 1-3.58 2.13l-.06.09 5.9 8.55v.12h-3.2l-5.67-8.52h-3v8.52h-2.7zm2.7-11h4.35A4 4 0 0 0 203 17a3.46 3.46 0 0 0 1.16-2.67 3.7 3.7 0 0 0-1-2.53 3.49 3.49 0 0 0-2.73-1.15h-4.52v7.4z"/><g id="_Group_" data-name="&amp;lt;Group&amp;gt;"><path d="M72.61 17.57a12.21 12.21 0 0 1 12.22-12 11.48 11.48 0 0 1 8.25 3.32l-2.32 2.32a8.39 8.39 0 0 0-5.93-2.35 8.64 8.64 0 0 0-8.64 8.75 8.64 8.64 0 0 0 8.64 8.75 8.06 8.06 0 0 0 6.08-2.41 6.87 6.87 0 0 0 1.79-4.14h-7.87v-3.32h11.08a10.72 10.72 0 0 1 .18 2.06 10.87 10.87 0 0 1-2.85 7.7 11 11 0 0 1-8.4 3.38 12.21 12.21 0 0 1-12.23-12.06zM105 14.11a7.76 7.76 0 1 0 7.78 7.76 7.64 7.64 0 0 0-7.78-7.76zm0 12.46a4.49 4.49 0 0 1-4.38-4.7 4.39 4.39 0 1 1 8.75 0 4.49 4.49 0 0 1-4.37 4.69zM122 14.11a7.76 7.76 0 1 0 7.78 7.76 7.64 7.64 0 0 0-7.78-7.76zm0 12.46a4.49 4.49 0 0 1-4.38-4.7 4.39 4.39 0 1 1 8.75 0 4.49 4.49 0 0 1-4.37 4.69zM142.86 14.58v1.26h-.12a5.37 5.37 0 0 0-4.08-1.73 7.76 7.76 0 0 0 0 15.51 5.29 5.29 0 0 0 4.08-1.76h.12V29c0 3-1.59 4.55-4.14 4.55a4.29 4.29 0 0 1-3.91-2.76l-3 1.23a7.39 7.39 0 0 0 6.87 4.58c4 0 7.37-2.35 7.37-8.08V14.58h-3.23zm-3.91 12a4.45 4.45 0 0 1-4.32-4.67 4.49 4.49 0 0 1 4.37-4.75c2.32 0 4.14 2 4.14 4.73s-1.87 4.67-4.14 4.67zM148.44 6.35h3.41v22.8h-3.41zM161.19 26.56a3.94 3.94 0 0 1-3.76-2.35l10.37-4.29-.35-.92c-.65-1.73-2.61-4.93-6.64-4.93s-7.31 3.14-7.31 7.76a7.59 7.59 0 0 0 7.7 7.76 7.71 7.71 0 0 0 6.46-3.44L165 24.42a4.43 4.43 0 0 1-3.81 2.14zm-.26-9.46a3 3 0 0 1 2.88 1.65l-6.93 2.88a4.25 4.25 0 0 1 4.04-4.53z"/></g></svg>